<?xml version="1.0" encoding="UTF-8" standalone="no"?>
<!-- Created with Inkscape (http://www.inkscape.org/) -->

<svg
   width="186.53761mm"
   height="196.86229mm"
   viewBox="0 0 186.53761 196.86229"
   version="1.1"
   id="svg1"
   inkscape:version="1.3 (0e150ed6c4, 2023-07-21)"
   sodipodi:docname="Full_Logo.svg"
   inkscape:export-filename="..\..\..\..\..\..\Users\URY19\OneDrive\Escritorio\text2.svg"
   inkscape:export-xdpi="96"
   inkscape:export-ydpi="96"
   xmlns:inkscape="http://www.inkscape.org/namespaces/inkscape"
   xmlns:sodipodi="http://sodipodi.sourceforge.net/DTD/sodipodi-0.dtd"
   xmlns:xlink="http://www.w3.org/1999/xlink"
   xmlns="http://www.w3.org/2000/svg"
   xmlns:svg="http://www.w3.org/2000/svg">
  <sodipodi:namedview
     id="namedview1"
     pagecolor="#505050"
     bordercolor="#eeeeee"
     borderopacity="1"
     inkscape:showpageshadow="0"
     inkscape:pageopacity="0"
     inkscape:pagecheckerboard="0"
     inkscape:deskcolor="#505050"
     inkscape:document-units="mm"
     inkscape:zoom="0.58794776"
     inkscape:cx="306.14965"
     inkscape:cy="429.45992"
     inkscape:window-width="1366"
     inkscape:window-height="697"
     inkscape:window-x="-8"
     inkscape:window-y="-8"
     inkscape:window-maximized="1"
     inkscape:current-layer="layer1" />
  <defs
     id="defs1" />
  <g
     inkscape:label="Capa 1"
     inkscape:groupmode="layer"
     id="layer1"
     transform="translate(-11.968322,-58.620784)">
    <ellipse
       style="fill:none;fill-opacity:1;stroke:none;stroke-width:0.242061;stroke-opacity:1"
       id="path10"
       cx="-112.62402"
       cy="-146.76237"
       transform="matrix(-0.99897705,-0.04522006,0.04954727,-0.99877178,0,0)"
       rx="74.342293"
       ry="74.073273"
       inkscape:export-filename="Full_Logo.svg"
       inkscape:export-xdpi="96"
       inkscape:export-ydpi="96" />
    <g
       id="g2"
       style="fill:#a50000;fill-opacity:1;stroke:#000000;stroke-width:1.32292;stroke-dasharray:none;stroke-opacity:1"
       transform="translate(0.23712923)">
      <path
         id="path1"
         style="fill:#a50000;fill-opacity:1;stroke:#000000;stroke-width:1.32292;stroke-dasharray:none;stroke-opacity:1"
         d="m 105.05607,80.915632 c -7.833221,0.212717 -14.816705,6.63583 -16.230535,15.548404 -27.73313,6.813784 -46.56246,31.188084 -46.605423,58.739054 -9.4e-5,33.6266 28.107352,60.88656 62.779628,60.88672 34.67248,1.2e-4 62.78024,-27.25992 62.78015,-60.88672 -0.0781,-32.37737 -26.2701,-59.03281 -59.61187,-60.666583 1.75498,-3.083015 4.86217,-5.571255 10.49291,-6.94893 -4.19911,-4.816237 -9.04511,-6.795767 -13.60486,-6.671945 z m 0.76998,3.890719 c 2.02868,0.04184 4.09208,0.571125 6.03167,1.63711 -6.29039,2.993731 -8.3234,6.445179 -8.55813,12.411128 32.21077,0.152088 60.09396,25.110091 60.09762,56.279251 7e-5,31.27946 -26.20462,56.63668 -58.52976,56.63686 -21.603303,6e-5 -40.459485,-11.334 -50.600527,-28.18381 16.204162,0.97428 20.457358,-27.63581 47.592957,-34.87694 -4.725677,8.06802 -0.35627,21.37392 -1.33584,32.38717 -0.46616,5.24109 -10.313617,14.1682 -12.908251,24.20679 l 5.831686,2.10323 c 1.920851,-12.88064 10.744585,-15.46552 12.829195,-21.79144 5.20211,-15.78625 -7.834449,-33.68722 1.4149,-42.54624 -2.95106,10.3594 3.76191,20.25093 13.95729,15.798 l -1.05162,3.65663 7.21765,8.50801 0.35863,-0.88419 c 0.72755,1.47973 1.10691,2.97613 1.26659,4.70824 1.30552,0.5881 2.67789,1.80963 4.11086,3.60857 0.66761,-1.23638 1.30899,-2.49881 2.22261,-3.4892 l 4.254,0.11938 c 0.14843,-2.21794 0.14045,-4.39665 1.26659,-6.85901 -7.95438,-9.61103 -7.25478,-21.45087 -16.36128,-32.18719 -5.56469,-12.95515 -36.013004,-32.4516 -21.92579,-47.756775 -21.530221,10.672225 11.61067,40.009995 17.29145,48.878675 -3.89884,-0.27579 -9.00402,0.69182 -12.52585,1.54306 -41.12909,9.94095 -37.873183,37.12152 -55.739751,40.81249 -3.649043,-7.38752 -5.695796,-15.65815 -5.695776,-24.39231 0.0067,-25.20651 17.227996,-47.3753 42.2491,-54.38686 0.246615,5.68082 2.698853,12.03302 8.349879,18.28829 l 3.882448,0.0847 c -5.697053,-7.36114 -8.071352,-13.87938 -8.273396,-19.206063 0.0099,-0.0021 0.02003,-0.0035 0.02997,-0.0057 -0.05272,-1.546791 0.01228,-3.017541 0.354502,-4.308779 -0.0098,0.0019 -0.01968,0.0032 -0.02946,0.0052 1.444371,-6.915376 7.032541,-10.919897 12.925834,-10.798337 z m 11.41429,56.612049 c 8.58524,-0.0636 9.45837,4.3541 11.24531,8.24084 -1.98169,0.27993 -2.28309,0.24411 -3.75895,0.31419 -3.54884,0.16853 -7.32788,-2.14152 -8.22223,-5.07617 -0.48169,-1.58055 -0.88572,-1.88903 -1.08624,-3.40496 0.64346,-0.0456 1.24976,-0.0697 1.82211,-0.0739 z m 17.32608,25.61239 c 1.01803,-9e-5 1.84335,0.78566 1.84329,1.75493 6e-5,0.96927 -0.82526,1.75503 -1.84329,1.75493 -1.01784,-1.7e-4 -1.84285,-0.78585 -1.84279,-1.75493 -6e-5,-0.96908 0.82495,-1.75475 1.84279,-1.75493 z" />
      <path
         style="fill:#a50000;fill-opacity:1;stroke:#000000;stroke-width:1.32292;stroke-dasharray:none;stroke-opacity:1"
         d="m 51.898774,154.01466 c 25.159312,5.0618 17.834095,-11.71497 60.873916,-19.95956 -5.91646,-5.783 -26.764938,0.0648 -37.701075,7.68767 -9.350324,6.5175 -12.4158,8.25369 -23.392285,6.74007 z"
         id="path2"
         sodipodi:nodetypes="ccscc" />
      <path
         style="fill:#a50000;fill-opacity:1;stroke:#000000;stroke-width:1.32292;stroke-dasharray:none;stroke-opacity:1"
         d="m 71.469155,128.18946 c 10.299334,1.73967 14.034796,-4.59741 31.653555,-5.72971 l 4.27081,5.3893 c -16.099184,-1.01608 -24.750432,9.36435 -35.924365,0.34041 z"
         id="path3"
         sodipodi:nodetypes="cccc" />
      <path
         style="fill:#a50000;fill-opacity:1;stroke:#000000;stroke-width:1.32292;stroke-dasharray:none;stroke-opacity:1"
         d="m 53.35224,162.76162 0.258839,6.04716 c 2.48331,-0.64928 8.350242,-0.21275 12.69338,-9.74497 -5.157579,2.09226 -9.581838,4.47191 -12.952219,3.69781 z"
         id="path4"
         sodipodi:nodetypes="cccc" />
      <path
         style="fill:#a50000;fill-opacity:1;stroke:#000000;stroke-width:1.32292;stroke-dasharray:none;stroke-opacity:1"
         d="m 94.317581,157.41513 -0.266935,8.61098 C 83.101492,170.57736 73.995954,190.8384 72.599415,197.8629 l -4.842148,-3.54917 c 3.491892,-12.98196 10.785975,-27.6157 26.560314,-36.8986 z"
         id="path5"
         sodipodi:nodetypes="ccccc" />
      <path
         style="fill:#a50000;fill-opacity:1;stroke:#000000;stroke-width:1.32292;stroke-dasharray:none;stroke-opacity:1"
         d="m 95.443177,172.44374 c 1.498074,15.5568 -8.190923,14.85807 -13.379706,31.01484 l -5.721366,-2.63824 c 8.645707,-15.02609 12.261331,-16.86497 14.247495,-21.08688 0.807259,-1.71595 2.653892,-4.86376 4.853577,-7.28972 z"
         id="path6"
         sodipodi:nodetypes="cccsc" />
      <path
         style="fill:#a50000;fill-opacity:1;stroke:#000000;stroke-width:1.32292;stroke-dasharray:none;stroke-opacity:1"
         d="m 96.98181,208.40162 c -0.56201,-9.90508 10.51871,-13.59738 11.20416,-22.05274 5.09435,14.25356 0.99046,15.44982 0.66781,23.24627 -3.95732,0.003 -7.91465,-0.21573 -11.87197,-1.19353 z"
         id="path8"
         sodipodi:nodetypes="cccc" />
    </g>
    <text
       xml:space="preserve"
       style="font-size:26.4583px;font-family:Arial;-inkscape-font-specification:Arial;fill:#a50000;fill-opacity:1;stroke:#000000;stroke-width:0.873125;stroke-dasharray:none;stroke-opacity:1"
       id="text1"
       transform="translate(-0.23713684)"><textPath
         xlink:href="#path10"
         id="textPath10"
         style="font-style:italic;font-variant:normal;font-weight:normal;font-stretch:normal;font-size:26.4583px;font-family:Arial;-inkscape-font-specification:'Arial Italic';fill:#a50000;fill-opacity:1;stroke:#000000;stroke-width:0.873125;stroke-dasharray:none;stroke-opacity:1">ᛋ      ᚲ      ᚨ      ᛚ      ᛗ</textPath></text>
    <path
       style="font-size:43.1246px;font-family:'PR Viking';-inkscape-font-specification:'PR Viking';fill:#ffffff;stroke:#000000;stroke-width:1.32292"
       d="m 64.582994,221.93961 q 0.0842,0.0632 -0.23163,0.37903 -0.2948,0.29479 -0.2948,0.42113 0,0.12635 0.23163,0.1474 0.37902,0.0842 0.42114,0.40008 0,0.21057 0,0.4422 0.23162,0.42114 0.94756,1.13707 0.71593,0.71594 0.92651,1.13708 0.0421,0.0632 0.42113,0.50536 0.21057,0.27375 0.1474,0.4422 -0.1474,0.46325 -0.50536,0.46325 -0.2948,0 -0.67383,-0.25268 -0.37902,-0.25268 -0.80016,-0.25268 0,0 -1.43187,0.35796 -0.10529,0.0211 -0.31586,0.31586 -0.21056,0.27374 -0.35796,0.21057 -0.69488,-0.27374 -0.92651,-0.27374 -0.25268,0.0421 -0.46325,0.0632 -0.21057,0 -0.52642,0.21057 -0.48431,0.35796 -1.45293,0.63171 -0.94756,0.27374 -1.2213,0.44219 -0.52643,0.40008 -0.52643,1.24236 -0.0421,0.50537 0.52643,1.03179 0.71593,0.69488 0.9265,1.26342 0.31585,0.84227 1.47399,2.06358 0.29479,0.69487 1.26341,1.91618 0.94756,0.71593 0.92651,1.70561 0,0.69488 0.50536,1.15813 0.84228,0.71594 1.01074,1.03179 0.42113,0.80016 0.90544,1.6635 0.50537,0.86333 1.15814,1.32658 0.65276,0.46326 1.05284,1.07391 0.1474,0.27374 0.1474,0.56853 0,0.50537 -0.42114,0.67383 -0.42114,0.31585 -1.20024,0.7791 -0.21057,0.10529 -1.05285,0.21057 -0.67382,0.10529 -0.98968,0.35797 -0.31585,0.25268 -0.65276,0.35797 -0.31586,0.10528 -0.46325,0.31585 -0.12635,0.21057 -1.24236,0.1474 -0.50537,-0.0421 -0.56854,0.0632 -0.16846,0.0421 -0.52642,0.61065 -0.33691,0.54748 -1.20025,0.54748 -0.63171,0 -0.63171,0.21057 0,0.0211 0.0421,0.0842 0,0.0842 0,0.12634 0,0.21057 -0.25268,0.31586 -0.77911,0.52642 -1.72667,2.10569 -0.84228,1.41082 -1.2213,1.49504 -0.12634,0.0211 -0.21057,0.0211 -0.31585,0 -0.25268,-0.65276 0.0632,-0.84228 -0.0211,-1.09496 0,-0.0421 -0.0421,-0.94756 0,-0.4422 -0.71594,-0.67383 -0.23162,-0.61065 -0.50536,-1.28447 -1.30553,-0.27374 -1.78984,-1.85301 -0.0842,-0.27374 0.21057,-0.27374 0.12634,0 0.58959,0.0632 0.46325,0.0632 0.69488,0.0632 0.12634,0 0.48431,0.1474 0.35797,0.1474 0.46325,0.1474 0.0632,0 0.18951,-0.0842 0.12634,-0.10529 0.2948,-0.10529 0.18951,0 0.42114,0.12634 0.23163,0.12634 0.33691,0.12634 0.0632,0 0.10528,-0.10528 0.40009,-0.77911 1.32659,-1.13707 1.15813,-0.42114 1.5161,-0.80017 1.05285,-1.11602 2.31626,-1.47398 0.25269,-0.0211 0.50537,-0.0632 0.27374,-0.0421 0.21057,-0.18952 -0.18951,-0.6317 -0.63171,-1.15813 -0.42114,-0.52642 -0.86333,-1.0739 -0.35797,-0.37902 -0.96862,-2.00041 -0.21057,-0.56854 -0.77911,-1.20024 -0.46325,-0.52643 -1.01073,-1.07391 0.0842,-0.0211 0.18951,-0.10528 -0.0421,-0.56854 -0.90545,-0.82122 -0.84228,-0.25268 -0.90545,-0.84228 -0.0421,-0.58959 -1.09496,-2.16886 0,-0.0421 -0.56853,-1.20025 -0.2948,-0.69488 -0.77911,-0.86333 -0.54748,-0.21057 -1.05285,-1.03179 -0.50536,-0.82122 -0.29479,-1.38976 0.0632,-0.25268 0.61065,-0.35797 0.54748,-0.12634 0.61065,-0.18951 0.35797,-0.65277 1.49504,-1.0739 1.62138,-0.56854 1.78984,-0.71594 0.0421,0.12634 0.10528,0.16846 0.37903,-0.71594 1.74773,-0.96862 1.38976,-0.25269 1.8109,-1.09496 0.0211,0.10528 0.14739,0.16845 0.52643,-0.25268 1.62139,-1.24236 0.23162,-0.31585 0.61065,-1.55821 0.33691,-0.92651 0.84228,-1.15813 0.18951,-0.0632 0.27374,-0.0632 0.18951,0 0.21057,0.61065 0.0842,0.75805 0.50536,1.0739 z m 11.51814,0.0211 q 0,0.1474 -0.35797,0.61065 -0.35797,0.4422 -0.42114,0.65277 -0.0632,0.37902 -0.16845,1.09496 -0.27374,0.54748 -0.61065,1.60032 0,0.0421 -0.0842,1.5161 -0.0211,0.50537 -0.18952,0.77911 -0.16845,0.27374 -0.14739,0.86333 0.14739,0.1474 0.35796,0.54748 0.0421,0.1474 0.0421,0.35797 0,0.27374 -0.1474,0.82122 -0.12634,0.54748 -0.12634,0.84228 0.0842,0.35797 0.1474,1.09496 -0.0211,0.25268 -0.0842,0.80016 -0.0421,0.1474 0,1.07391 0,0.98967 0.0632,1.05284 0.37903,0.35797 0.56854,0.0842 0.21057,-0.29479 0.31585,-0.94756 0.12634,-0.67382 0.25269,-0.90545 0.14739,-0.42114 0.58959,-0.86333 0.35797,-0.35797 0.4422,-0.96862 0.0632,-0.4422 0.54748,-1.01073 0.27374,-0.27374 0.50536,-0.50537 0.21057,-0.50537 0.71594,-1.62138 0.1474,-0.33691 1.28447,-3.11643 0.21057,-0.50537 0.67382,-1.57927 0.31586,-0.84228 0.25269,-0.94756 -0.0211,-0.1474 -0.37903,-0.33691 -0.35797,-0.18951 -0.44219,-0.2948 -0.48431,-0.84228 -0.10529,-0.96862 0.56854,-0.1474 0.86334,-0.1474 0.16845,0 0.54748,0.12635 0.40008,0.12634 0.98967,0.14739 0.0842,0 0.50537,-0.12634 0.42114,-0.1474 0.75805,-0.1474 0.35797,0 1.09496,0.27374 0.2948,0.12635 1.78984,0.0632 0.63171,-0.0421 0.63171,0.1474 0,0 -0.23163,0.37903 -0.0421,0.12634 -0.40008,0.61065 -0.21057,0.2948 -0.80017,0.86333 -0.21057,-0.0632 -0.50536,0 0.0211,0.27374 -0.0842,0.71594 -0.1474,0.25268 -0.63171,0.50536 -0.46325,0.25269 -0.65277,0.48431 -0.16845,0.23163 -0.67382,1.64245 -0.0211,0.0842 -0.1474,0.75804 -0.0632,0.37903 -0.42113,0.82122 -0.10529,0.12635 -0.35797,0.77911 -0.23163,0.63171 -0.65277,0.96862 -0.69488,0.56854 -0.69488,0.84228 0,0.0421 0.0421,0.18951 0.0632,0.12634 0.0632,0.23163 0,0.23162 -0.18951,0.58959 -0.33691,0.2948 -0.84227,0.92651 -0.0842,0.44219 -0.35797,1.2213 -0.4422,0.90545 -1.09496,2.12675 -0.21057,0.27374 -0.27374,0.56854 -0.2948,0.9265 -0.21057,1.13707 0.0842,0.27374 0.84227,1.01073 0.56854,0.42114 1.55822,1.32659 0.0421,0.23163 0.29479,0.65276 0.52643,0.40009 1.49505,1.20025 0.31585,0.56854 1.13707,1.62138 0.37903,0.0842 1.01073,0.46326 0.27374,0.21057 0.54748,0.7791 0.2948,0.56854 0.50537,0.82122 0.50537,0.52643 1.3687,1.01074 0.21057,0.0842 0.84228,0.65276 0.42114,0.2948 1.43187,1.26342 0.33691,0.23162 0.77911,0.90545 0.0211,0.37902 -0.5896,0.37902 -0.48431,0.0211 -1.32658,-0.0842 -0.92651,-0.18951 -1.30553,-0.21057 -0.42114,0.0632 -1.28448,0.0842 -0.12634,0 -0.44219,-0.12634 -0.31586,-0.10528 -0.52643,-0.0421 -0.80016,0.25268 -1.05284,0.25268 -0.25269,0 -0.25269,-0.31585 0,-0.0421 0,-0.1474 0,-0.10528 0,-0.18951 0,-0.5896 -0.27374,-1.20025 -0.0842,-0.16845 -1.13707,-1.2213 -0.35797,-0.54748 -1.2213,-1.57927 -0.63171,-0.40008 -1.74773,-1.41081 -0.1474,-0.1474 -0.23162,-0.5896 -0.0632,-0.46325 -0.21057,-0.61065 -0.1474,-0.16845 -0.5896,-0.2948 -0.42114,-0.14739 -0.54748,-0.21056 -0.27374,-0.23163 -0.86333,-0.63171 -0.54748,-0.2948 -0.63171,-0.2948 -0.18951,0 -0.18951,0.42114 0,0.27374 0.10528,0.88439 0.0421,0.88439 -0.42114,1.60033 -0.29479,0.50536 -0.27374,1.70561 -0.18951,0.46325 -0.35796,1.09496 0.0211,0.18951 0.31585,0.23162 0.31585,0.0421 0.31585,0.25269 0.0211,0.29479 0.2948,0.56854 0.27374,0.12634 0.73699,0.44219 0.27374,0.25268 0.5896,0.48431 0.33691,0.23163 0.33691,0.42114 0,0.0632 -0.0842,0.12634 -0.48431,0.31585 -1.30553,0.37903 -0.75805,0 -1.47399,0 -0.33691,-0.0632 -0.9265,-0.0842 -0.33691,0 -1.30553,0.10529 -0.84228,0.12634 -1.32659,0.10528 -0.84228,-0.10528 -0.86333,-0.42113 -0.0632,-0.65277 0.88439,-0.92651 0.48431,-0.12634 0.54748,-0.69488 0.0211,-0.42114 0.0632,-0.90545 0.0632,-0.10528 0.0842,-0.88439 0.0842,-1.85301 0.0842,-3.20065 0,-0.21057 -0.0842,-0.63171 -0.0632,-0.4422 -0.0632,-0.63171 0,-0.23162 0.1474,-0.61065 0.1474,-0.40008 0.1474,-0.63171 0,-0.25268 -0.16846,-0.58959 -0.1474,-0.35797 -0.1474,-0.5896 0,-0.56853 -0.0421,-1.30553 0.0421,-0.84227 0.27374,-1.83195 0.25269,-0.86333 0.21057,-1.83195 -0.23163,-0.42114 -0.44219,-0.88439 0,0 0,-2.84269 0,-0.2948 -0.10529,-0.90545 -0.10528,-0.63171 -0.10528,-0.9265 0,-0.54748 0.21057,-0.98968 0.16845,-0.16845 0.16845,-0.42114 0,-0.1474 -0.12634,-0.56853 -0.12634,-0.4422 -0.12634,-0.71594 0,-0.42114 0.10528,-0.9265 0.0421,-0.31586 -0.0211,-0.92651 -0.0842,-0.92651 -0.1474,-1.13707 -0.12634,-0.48431 -0.50536,-0.69488 -0.88439,-0.4422 -0.88439,-0.92651 0,-0.25268 0.48431,-0.25268 0.27374,0 0.75805,0.12634 0.50536,0.10528 0.67382,0.10528 0.25268,0 0.65276,-0.0632 0.40008,-0.0842 0.63171,-0.0842 0.52642,0 1.05285,0.27374 0.25268,0.0632 0.48431,0.0632 0.27374,0 0.7791,-0.12634 0.50537,-0.12634 0.71594,-0.12634 0.50537,0 0.50537,0.21057 z m 35.775726,28.65849 q -0.12634,0.0211 -0.35797,-0.0421 -0.21056,-0.0421 -0.27374,-0.0421 -0.0842,0 -0.27374,0.0421 -0.18951,0.0421 -0.31585,0.0421 -0.18951,-0.16846 -0.63171,-0.37903 -0.0632,-0.0421 -0.10528,0.12634 -0.0211,0.16846 -0.0632,0.16846 -0.21057,0 -0.56854,-0.1474 -0.33691,-0.1474 -0.48431,-0.1474 -0.12634,-0.0421 -0.52642,0.0421 -0.37903,0.10529 -0.48431,0.10529 -0.37903,0 -0.37903,-0.63171 0,-0.2948 0.18952,-1.05285 0.21056,-0.7791 0.18951,-1.15813 -0.16846,-0.40008 -0.46325,-1.2213 -0.0842,-0.77911 -0.65277,-2.23204 -0.4422,-0.73699 -1.11602,-0.56853 -0.31585,0.10528 -0.71593,0.61065 -0.50537,0.56854 -0.67382,0.71593 -0.46326,0.16846 -1.28448,0.65277 -0.25268,0.25268 -0.73699,0.71593 -0.35797,0.33692 -0.37903,0.33692 -0.21056,-0.1474 -0.44219,-0.52643 -0.21057,-0.40008 -0.40008,-0.52642 -0.5896,-0.2948 -1.768786,-0.92651 -0.35797,-0.33691 -1.13707,-0.9265 -0.25269,-0.16846 -0.40009,0 0,0.23162 -0.10528,0.71593 -0.0211,0.0632 -0.16846,0.16846 -0.12634,0.0842 -0.12634,0.12634 0,0.10529 0.16846,0.23163 0.16845,0.12634 0.12634,0.23162 -0.10529,0.31586 -0.58959,0.94757 -0.48431,0.61065 -0.54748,0.98967 -0.0842,0.54748 0.18951,1.49504 0.29479,1.05285 0.29479,1.47399 0,0.61065 -0.4843,0.67382 -0.4422,0.0421 -1.15814,-0.10528 -0.90544,-0.25269 -1.17918,-0.31586 -0.37903,-0.0211 -1.57927,-0.0421 -0.1474,-0.0421 -0.54748,0.0842 -0.40009,0.12634 -0.54748,0.12634 -0.25269,0 -0.27374,-0.21057 -0.0632,-0.52642 0.35796,-1.13707 0.37903,-0.56854 0.737,-1.09496 0.35796,-0.18951 0.88439,-0.73699 0.0421,-0.12634 -0.10529,-0.37903 -0.1474,-0.25268 -0.10528,-0.33691 0.31585,-0.54748 0.73699,-1.62138 0.0842,-0.16846 0.27374,-0.56854 0.0632,-0.2948 0.37903,-0.92651 0.12634,-0.14739 0.14739,-0.54747 0.0211,-0.40009 0.0421,-0.54749 0.35797,-0.75805 0.92651,-2.33732 -0.0211,-0.50536 0.0632,-1.55821 0.27374,-0.27374 0.58959,-0.84228 0.1474,-0.69487 0.54748,-2.02146 0.0842,0.0211 0.16846,0 0.0632,-0.73699 0.31585,-2.08464 0.0842,-0.18951 0.4422,-0.52642 0.35797,-0.33691 0.44219,-0.56854 0.27374,-0.48431 0.77911,-2.50577 0.0632,-0.48431 0.27374,-1.47399 0.12634,-0.44219 0.52642,-1.15813 0.40009,-0.73699 0.484306,-1.05285 0.0842,-0.27374 0.44221,-2.1478 0.10528,-0.46326 0.31585,-1.38976 0.21057,-0.65277 0.52643,-1.28447 0.18951,-0.48431 0.7791,-1.13708 0.27374,-0.16845 0.54748,0.35797 -0.0842,0.21057 -0.0842,0.56854 0.23163,0.29479 0.65277,0.90544 -0.0842,0.1474 -0.12634,0.42114 0.18951,0.42114 0.48431,1.28448 0.0632,0.42113 0.27374,1.20024 0.25268,0.46325 0.7791,1.38976 0.0211,0.33691 0.1474,0.90545 0.23163,0.69488 0.65277,1.97935 0,0.42114 0.16845,1.20024 0.40008,0.5896 1.03179,1.85301 0.16846,0.67383 0.56854,2.02147 0.23163,0.84228 0.63171,1.97935 0.16845,0.37903 0.50536,1.15813 0.0632,0.46325 0.25269,1.24236 0.16845,0.65277 0.37902,1.3687 0.0842,0.48431 0.35797,1.28448 0.1474,0.27374 0.46325,0.7791 0.67382,1.32659 1.68456,4.4009 0.12634,0.50537 0.44219,1.55821 0.0632,0.16846 0.69488,1.28448 0.1474,0.16845 0.31586,0.35796 0.27374,0.2948 0.27374,0.4422 0,0.27374 -0.52643,0.35797 -0.35797,0.0421 -0.75805,0.0632 z m -6.10651,-8.73863 q 0.0632,-0.0211 0,-0.2948 -0.10528,-0.56853 -0.46325,-1.68455 -0.0632,-0.0842 -0.33691,-0.12634 -0.27374,-0.0421 -0.33691,-0.12635 -0.0842,-0.21056 -0.0421,-0.54747 0.0421,-0.56854 0.0421,-0.56854 0,-0.35797 0,-0.35797 -0.2948,-0.2948 -0.737,-1.05285 -0.25268,-1.03179 -0.84227,-3.09537 -0.16846,-0.35796 -0.4422,-1.05284 -0.0421,-0.0421 -0.18951,-0.90545 -0.0842,-0.50537 -0.35797,-0.65277 -0.27374,-0.12634 -0.40008,0.27374 -0.12634,0.37903 -0.25268,0.71594 0,0.37903 -0.12634,1.09496 -0.10529,0.10528 -0.35797,0.31585 0.0421,0.1474 0,0.37903 -0.35797,0.98968 -1.010736,2.92691 -0.21057,0.61065 -0.54748,1.68456 -0.0211,0.48431 -0.21057,1.41081 -0.0421,0.1474 -0.37902,0.65277 -0.23163,0.35797 -0.1474,0.65276 0.0211,0.0842 0.16845,0.0842 0.10529,0 0.96862,-0.40008 0.589596,-0.35797 1.916186,-1.11602 0.0842,-0.0632 0.27374,-0.29479 0.18951,-0.25269 0.35796,-0.25269 0.10529,0 0.18952,0.25269 0.10528,0.23162 0.18951,0.29479 0.33691,0.23163 1.0739,0.75805 0.42114,0.35797 1.32659,1.03179 0.2948,0.18951 0.67382,0 z m 13.91864,-19.73035 q 0.16845,0 0.56853,-0.10528 0.42114,-0.10529 0.5896,-0.10529 0.42114,0 0.42114,0.2948 0,0.16845 -0.35797,0.84228 -0.2948,0.23162 -0.77911,0.82122 -0.37902,0.73699 -0.54748,1.60032 0.0632,0.37903 0.10529,1.13708 -0.1474,0.37902 -0.31586,1.2213 0,0.23163 0.10529,0.75805 0.10528,0.50536 0.10528,0.73699 0,0.1474 -0.12634,0.50537 -0.10528,0.33691 -0.0842,0.50536 0.21057,0.40009 0.48431,1.24236 0.0421,0.31586 -0.0632,0.8844 -0.10528,0.69487 -0.10528,0.86333 -0.0421,0.7791 0,1.41081 0,0.1474 0.10528,0.56854 0.10529,0.42114 0.0632,0.63171 -0.23162,0.23163 -0.48431,0.77911 0,0.23162 0.1474,0.67382 0.16846,0.42114 0.16846,0.63171 0,0.0632 -0.16846,0.10528 -0.1474,0.0211 -0.1474,0.0842 -0.0421,0.73699 0.12634,1.85301 0,0.0632 0.0842,0.0842 0.10529,0 0.10529,0.0421 -0.0421,0.1474 -0.18952,0.4422 -0.14739,0.29479 -0.12634,0.48431 0.25269,1.3687 0.75805,1.95829 0.23163,0.25268 0.69488,0.35797 0.46325,0.10528 0.92651,0.18951 0.9265,0.33691 2.12675,0.58959 0.9265,0.12635 2.71634,0.54749 0.65277,0.35796 2.06358,0.96861 0.65277,0.1474 1.49504,-0.10528 0.23163,-0.23163 0.84228,-0.67382 0.77911,-0.40008 0.82122,-0.40008 0.16846,0 0.21057,0.12634 0.18951,0.35796 0.12634,1.0739 -0.0211,0.56854 -0.0842,1.13708 -0.35796,0.65276 -0.75805,1.55821 -0.021,0.21057 -0.021,0.37902 0,0.2948 0.0632,0.61065 0.0632,0.31586 0.0632,0.4422 0,0.35797 -0.33691,0.80016 -0.0632,0.10529 -0.18951,0.10529 -0.16846,0 -0.52643,-0.31586 -0.44219,-0.40008 -0.56854,-0.46325 -0.84227,-0.40008 -2.54788,-1.13707 -0.16846,0.0842 -0.56854,0.10528 -0.12634,-0.21057 -0.48431,-0.52642 -0.35797,-0.21057 -1.30553,-0.48431 -0.12634,-0.0211 -1.11602,-0.12634 -0.65276,-0.10529 -1.20024,-0.4422 0,-0.0632 0,-0.12634 -0.40008,-0.35797 -0.75805,-0.35797 -0.16846,0 -0.48431,0.10529 -0.25269,0.0421 -0.42114,0 -0.75805,-0.12634 -2.18992,-0.56854 -0.23163,-0.25268 -0.80017,-0.63171 -0.12634,-0.0632 -1.32658,-0.1474 -0.98968,-0.0632 -1.15813,-0.48431 -0.0842,-0.14739 -0.0842,-0.33691 0,-0.29479 0.25268,-0.96862 0.25269,-0.69487 0.18951,-0.98967 -0.23162,-1.9583 -0.23162,-1.62139 0,-0.42113 0.16845,-0.82122 0.33691,-0.65276 0.35797,-1.43187 0,-0.67382 0.0421,-1.34764 0.0211,-0.5896 -0.21057,-1.5161 0,-0.0842 -0.1474,-0.21057 -0.12634,-0.1474 -0.12634,-0.27374 0,-0.10528 0.12634,-0.37902 0.1474,-0.27375 0.1474,-0.46326 0,-1.13707 0,-3.34805 0.0211,-0.2948 0.0632,-1.15813 0.0421,-0.75805 0.0211,-1.17919 0,-0.25268 -0.0842,-0.77911 -0.0632,-0.52642 -0.0632,-0.80016 0,-0.2948 0.12634,-1.13707 0.10528,-0.71594 0.0211,-1.13708 -0.0211,-0.2948 -0.29479,-0.71593 -0.35797,-0.52643 -0.46326,-0.69488 -0.31585,-0.737 -0.44219,-1.17919 -0.1474,-0.63171 0,-0.69488 0.23162,-0.0842 0.75805,-0.0211 0.56854,0.0421 0.73699,0.0421 0.18951,-0.0211 0.73699,0.0632 0.54748,0.0842 0.67383,0.0842 0.58959,-0.0421 1.97935,-0.0421 z m 37.27076,-0.0632 q 0.10529,0.0211 0.67383,-0.0842 0.37902,-0.0632 0.56853,0.0842 0.35797,0.35797 -0.21057,0.94756 -0.12634,0.12634 -0.48431,0.16846 -0.35796,0.0211 -0.48431,0.12634 -0.73699,0.67382 -0.88439,1.32659 -0.10528,0.27374 0.0842,0.65276 0.16846,0.48431 0.21057,0.65277 0.0632,0.88439 0,2.31626 -0.0421,0.31585 -0.12634,1.13707 -0.0842,0.80017 -0.0842,1.22131 0,0.18951 0.10529,0.6317 0.10528,0.4422 0.10528,0.69488 -0.25268,0.2948 -0.50537,1.03179 -0.0421,0.27374 0.12635,0.82122 0.16845,0.52643 0.16845,0.77911 -0.0842,0 -0.21057,0.0842 0.1474,0.42114 0.33691,1.2213 -0.0632,0.75805 -0.12634,2.18992 0,0.35797 0.10529,1.13708 0.10528,0.7791 0.10528,1.2213 -0.1474,0.33691 -0.2948,1.05284 0.0211,-0.33691 0.0842,2.14781 -0.0421,0.48431 0,1.34765 0.1474,0.94756 0.80016,3.41122 0.0632,0.16846 0.54748,0.50537 0.50537,0.33691 0.50537,0.54748 0,0.56853 -1.32659,0.56853 -0.44219,0 -1.41081,-0.10528 -0.96862,-0.10529 -1.26342,-0.10529 -0.25268,0 -0.80016,0.10529 -0.54748,0.10528 -0.80016,0.10528 -0.82122,0 -0.82122,-0.54748 0,-0.0632 0.40008,-0.75805 0.40008,-0.71593 0.33691,-1.64244 0,-0.23162 0.18951,-2.00041 0,-0.0632 0.1474,-0.67382 0.0842,-0.48431 0.0211,-0.75805 -0.0211,-0.16845 -0.2948,-0.54748 -0.27374,-0.40008 -0.27374,-0.67382 0,-0.2948 0.27374,-0.84228 0.27374,-0.56853 0.2948,-0.84227 0.0632,-0.65277 -0.0842,-2.65318 -0.12634,-0.63171 -0.27374,-1.89512 0,-0.10529 0.0842,-0.33691 0.10528,-0.23163 0.10528,-0.31586 0.0211,-0.1474 0,-1.13707 0,-0.33691 -0.0632,-2.00041 -0.0632,-1.15813 -0.0421,-1.93724 0.0421,-0.18951 0.16845,-0.56853 0.1474,-0.40009 0.10529,-0.56854 -0.12635,-0.98968 -0.56854,-0.96862 -0.27374,0 -0.48431,0.42114 -0.25268,0.54748 -0.35797,0.63171 -0.25268,0.14739 -0.73699,0.56853 -0.35797,0.5896 -1.2213,1.70561 -0.12634,0.0842 -0.46326,0.12635 -0.31585,0.0211 -0.4843,0.16845 -0.1474,0.12634 -0.27374,0.54748 -0.12635,0.40008 -0.27375,0.56854 -0.25268,0.0211 -0.6317,0.16845 -0.1474,0.0632 -0.46326,0.61066 -0.21056,0.35796 -0.42113,0.25268 -0.37903,-0.21057 -0.75805,-0.92651 -0.40009,-0.86333 -0.61065,-1.0739 -0.4422,-0.21057 -1.22131,-0.73699 -0.48431,-0.54748 -1.41081,-1.53716 -0.50537,-0.44219 -1.62139,-1.09496 -0.14739,-0.0632 -0.25268,0.35797 -0.31585,1.01073 -0.27374,1.38976 0.21057,0.82122 0.4422,2.40049 0.0632,0.56853 -0.0211,1.57927 -0.0632,1.20024 -0.0632,1.62138 0,0.4422 0.12634,1.76878 0.1474,1.07391 0.0421,1.72667 -0.14739,0.2948 -0.35796,0.92651 0,0.0632 0.0632,0.10528 0.0842,0.0421 0.12634,0.10529 0.23163,2.33732 0.16845,3.76919 -0.10528,0.18951 -0.25268,0.56853 0.0842,0.42114 0.16846,1.24236 0,0.0211 -0.1474,0.0211 -0.12634,0 -0.12634,0.0632 0.21057,1.43188 0.67382,2.48472 0.21057,0.10529 0.56854,0.46325 0.16845,0.27374 0.16845,0.46326 0,0.37902 -0.73699,0.37902 -0.35797,0 -1.17919,-0.10528 -0.80016,-0.10529 -1.0739,-0.0632 -0.23163,0 -0.86334,0 -0.80016,0.0211 -2.42154,-0.10529 -0.12635,-0.0211 -0.18952,-0.16845 -0.0842,-0.1474 0,-0.21057 0.21057,-0.23163 0.69488,-0.71594 0.23163,-0.1474 0.5896,-0.61065 0.18951,-0.35797 0.31585,-0.71593 0.1474,-0.37903 0.2948,-1.09497 0,0.0632 -0.0842,-1.70561 -0.10529,-1.55821 0,-3.11642 -0.12634,-1.11602 -0.21057,-3.41123 0.16846,-0.71593 0.37902,-2.18992 0,-0.21057 -0.14739,-0.56854 -0.12635,-0.37902 -0.12635,-0.56853 0.0632,-0.1474 0.10529,-0.4422 -0.0421,-0.12634 -0.23163,-0.31585 -0.18951,-0.18951 -0.16845,-0.37903 0,-0.25268 0.21057,-0.82122 0.23162,-0.56853 0.27374,-0.84227 0,-0.12635 -0.21057,-0.23163 -0.18952,-0.12634 -0.18952,-0.25268 0,-0.1474 0.23163,-0.46326 0.23163,-0.31585 0.25268,-0.46325 0.0842,-0.98967 -0.0842,-2.08463 -0.2948,-0.46326 -0.61065,-1.45293 0,-0.18952 0.27374,-0.56854 0.29479,-0.40008 0.25268,-0.65277 -0.27374,-1.03178 -1.24236,-1.97935 -0.27374,-0.23162 -0.92651,-0.44219 -0.6317,-0.21057 -0.86333,-0.42114 -0.35797,-0.2948 -0.27374,-0.84228 0.0421,-0.1474 0.46325,-0.10528 0.25269,0.0211 0.88439,0.27374 0.56854,0.1474 0.90545,0.1474 0.2948,0 0.88439,-0.21057 0.61065,-0.21057 0.88439,-0.21057 0.16846,0 0.46326,0.21057 0.31585,0.21057 0.48431,0.21057 0.1474,0 0.46325,-0.18952 0.31585,-0.21057 0.50537,-0.23162 0.0842,0 0.29479,0.12634 0.21057,0.10528 0.31586,0.10528 0.12634,0 0.37902,-0.1474 0.25268,-0.14739 0.33691,-0.14739 0.10529,0 0.12634,0.0632 0.27374,0.31585 0.40009,0.9265 0.16845,0.80017 0.25268,0.98968 0.27374,0.56854 0.84228,1.24236 0.29479,0.21057 0.86333,0.71593 0.0421,0.21057 0.18951,0.52643 0.50537,0.23162 1.41082,0.94756 0.10528,0.12634 0.16845,0.56854 0.0842,0.42113 0.27374,0.54748 0.69488,0.44219 1.62139,0.21056 0.25268,-0.10528 1.0739,-0.96861 0.31585,-0.42114 0.94756,-1.22131 0.12634,-0.12634 0.35797,-0.35796 0.48431,-0.56854 1.45293,-1.64244 0.40008,-0.18952 1.01073,-0.75805 0.12634,-0.27374 0.16846,-0.86334 0.0632,-0.58959 0.12634,-0.86333 0.0632,-0.1474 0.27374,-0.18952 0,0 2.71634,0 1.3687,0 1.3687,0 0.0632,0.10529 0.21057,0.18952 z"
       id="text2-9"
       aria-label="SKALM"
       inkscape:export-filename="text2.svg"
       inkscape:export-xdpi="96"
       inkscape:export-ydpi="96" />
  </g>
</svg>
